<svg width="537" height="906" viewBox="0 0 537 906" fill="none" xmlns="http://www.w3.org/2000/svg">
<path d="M355.769 476.919C307.084 586.299 235.415 682.479 169.503 748.437C136.545 781.418 105.068 806.801 78.6701 822.498C65.468 830.348 53.587 835.744 43.4622 838.475C33.3085 841.213 25.1122 841.22 19.128 838.556C16.1721 837.24 14.0992 835.371 12.7536 832.99C11.3973 830.591 10.7214 827.568 10.7499 823.87C10.8072 816.43 13.7114 806.586 19.0576 794.498C29.7328 770.362 49.8155 737.978 74.6403 699.338C79.6936 691.472 84.9414 683.35 90.3432 674.99C137.955 601.303 197.532 509.097 241.382 410.579C287.33 307.347 311.354 207.139 329.261 132.446C330.385 127.758 331.485 123.169 332.565 118.687C341.72 80.688 349.393 50.4507 357.963 31.1346C362.255 21.4604 366.681 14.7471 371.45 11.1297C373.809 9.3412 376.228 8.3267 378.758 8.06003C381.29 7.79299 384.038 8.26495 387.063 9.61174C393.101 12.2992 398.773 18.0624 403.852 26.7556C408.921 35.4325 413.326 46.9032 416.89 60.7945C424.017 88.5737 427.731 125.83 426.793 169.274C424.919 256.15 404.451 367.545 355.769 476.919Z" fill="#86B67E" stroke="#629B59" stroke-width="3"/>
<ellipse cx="325.528" cy="375" rx="58" ry="57" fill="#629B59"/>
<ellipse cx="279.528" cy="491" rx="56" ry="59" fill="#629B59"/>
<ellipse cx="211.528" cy="597" rx="56" ry="58" fill="#629B59"/>
</svg>
