<svg width="269" height="453" viewBox="0 0 269 453" fill="none" xmlns="http://www.w3.org/2000/svg">
<path d="M177.164 238.297C152.868 292.883 117.096 340.889 84.2042 373.804C67.7557 390.264 52.0696 402.907 38.9438 410.712C32.378 414.616 26.5037 417.279 21.5314 418.62C16.5303 419.968 12.6322 419.93 9.86713 418.699C8.52078 418.1 7.61412 417.269 7.02853 416.233C6.43237 415.178 6.11046 413.806 6.12399 412.049C6.15142 408.489 7.55003 403.684 10.2129 397.663C15.5215 385.661 25.5261 369.523 37.9438 350.195C40.4692 346.264 43.0924 342.204 45.7931 338.024C69.5913 301.193 99.4064 255.049 121.352 205.744C144.351 154.073 156.375 103.918 165.326 66.5824C165.888 64.2357 166.439 61.9398 166.979 59.6972C171.561 40.6784 175.381 25.6384 179.632 16.0583C181.764 11.252 183.913 8.04123 186.142 6.35124C187.229 5.52645 188.312 5.08185 189.42 4.96504C190.531 4.84788 191.772 5.04969 193.188 5.68006C196.007 6.93473 198.74 9.66853 201.238 13.9434C203.726 18.2018 205.906 23.8651 207.677 30.7675C211.218 44.5687 213.072 63.121 212.604 84.7936C211.669 128.129 201.457 183.716 177.164 238.297Z" fill="#86B67E" stroke="#629B59" stroke-width="3"/>
<ellipse cx="162.732" cy="187.653" rx="28.9942" ry="28.4943" fill="#629B59"/>
<ellipse cx="139.736" cy="245.641" rx="27.9944" ry="29.4941" fill="#629B59"/>
<ellipse cx="105.743" cy="298.63" rx="27.9944" ry="28.9942" fill="#629B59"/>
</svg>
